<svg xmlns="http://www.w3.org/2000/svg" xmlns:xlink="http://www.w3.org/1999/xlink" width="44.963" height="73.539" viewBox="0 0 44.963 73.539"><defs><style>.a,.c,.h{fill:none;}.b{clip-path:url(#a);}.c,.h{stroke:#fff;stroke-miterlimit:10;}.c{stroke-width:0.756px;}.d{mix-blend-mode:multiply;isolation:isolate;fill:url(#b);}.e{fill:url(#c);}.f{fill:url(#d);}.g{fill:url(#e);}.i{fill:url(#f);}.j{fill:url(#g);}.k{fill:#fff;stroke:#707070;}.l{fill:#414042;}.m{fill:#af0d27;}.n{fill:#00529c;}.o{fill:#217f44;}.p{stroke:none;}</style><clipPath id="a"><path class="a" d="M393.577,218.1a17.089,17.089,0,0,1-17.216,17.225A17.3,17.3,0,0,1,359.155,218.1a16.978,16.978,0,0,1,17.194-17.212A17.163,17.163,0,0,1,393.577,218.1Z" transform="translate(-359.149 -200.893)"/></clipPath><linearGradient id="b" x1="0.503" y1="0.739" x2="0.506" y2="1.06" gradientUnits="objectBoundingBox"><stop offset="0" stop-color="#fff"/><stop offset="1" stop-color="#930a17"/></linearGradient><linearGradient id="c" y1="0.5" x2="1" y2="0.5" gradientUnits="objectBoundingBox"><stop offset="0" stop-color="#ef5713"/><stop offset="0.399" stop-color="#e71618"/><stop offset="1" stop-color="#8f0026"/></linearGradient><radialGradient id="d" cx="0.719" cy="0.261" r="0.324" gradientTransform="matrix(1, 0, 0, 1.113, 0, -0.032)" gradientUnits="objectBoundingBox"><stop offset="0" stop-color="#419fdb"/><stop offset="0.045" stop-color="#3b95d3"/><stop offset="0.24" stop-color="#2670b7"/><stop offset="0.434" stop-color="#1553a1"/><stop offset="0.627" stop-color="#093e91"/><stop offset="0.817" stop-color="#023288"/><stop offset="1" stop-color="#002e85"/></radialGradient><linearGradient id="e" x1="0.4" y1="1.054" x2="0.787" y2="0.834" gradientUnits="objectBoundingBox"><stop offset="0" stop-color="#c7c9cb"/><stop offset="1" stop-color="#fff"/></linearGradient><linearGradient id="f" x1="0.061" y1="0.616" x2="0.972" y2="-0.045" gradientUnits="objectBoundingBox"><stop offset="0" stop-color="#434243"/><stop offset="0.656" stop-color="#c7c9cb"/><stop offset="1" stop-color="#e1e1e1"/></linearGradient><linearGradient id="g" x1="0.658" y1="0.57" x2="0.548" y2="0.388" gradientUnits="objectBoundingBox"><stop offset="0" stop-color="#ffa300"/><stop offset="1" stop-color="#ffcb00"/></linearGradient></defs><g transform="translate(0)"><g transform="translate(5.522 0)"><g class="b"><g transform="translate(15.432 15.62)"><path class="c" d="M414.588,256.428" transform="translate(-414.588 -256.428)"/></g><path class="d" d="M379.439,251.68a7.64,7.64,0,0,1-.489-2.6c0-.1.018-1.094.022-1.2a10.084,10.084,0,0,1-4.124,6.19A8.761,8.761,0,0,1,370.2,255.5c-5.7,0-10.3-5.541-10.3-11.13,0-.258.013-.513.033-.766a17.4,17.4,0,0,0,6.2,19l.015.009-.049-.037.078.055c.055.038.113.074.171.11a8.341,8.341,0,0,0,2.143.7,10.851,10.851,0,0,0,8.777-1.779C380.241,259.445,380.649,254.953,379.439,251.68Z" transform="translate(-359.165 -231.588)"/><path class="e" d="M379.439,251.68a7.64,7.64,0,0,1-.489-2.6c0-.1.018-1.094.022-1.2a10.084,10.084,0,0,1-4.124,6.19A8.761,8.761,0,0,1,370.2,255.5c-5.7,0-10.3-5.541-10.3-11.13,0-.258.013-.513.033-.766a17.4,17.4,0,0,0,6.2,19s.017.009.043.027c.055.038.113.074.171.11a8.341,8.341,0,0,0,2.143.7,10.851,10.851,0,0,0,8.777-1.779C380.241,259.445,380.649,254.953,379.439,251.68Z" transform="translate(-359.165 -231.588)"/><path class="f" d="M404.443,236.908a7.24,7.24,0,0,0-6.017,3.212,7.781,7.781,0,0,0-1.252,4.136,8.419,8.419,0,0,0,.457,2.564c1.174,3.651.917,7.8-2.055,10.008a10.849,10.849,0,0,1-8.776,1.779,10.074,10.074,0,0,1-2.266-.76,16.8,16.8,0,0,0,19.4.552,15.367,15.367,0,0,0,2.621-2.077,19.151,19.151,0,0,0,2.178-2.585,17.123,17.123,0,0,0,1.653-2.948,17.77,17.77,0,0,0,1.067-2.985,10.755,10.755,0,0,0-.2-6.276,7.062,7.062,0,0,0-.792-1.5,7.921,7.921,0,0,0-1.556-1.605,6.641,6.641,0,0,0-1.943-1.065,9,9,0,0,0-1.159-.31A7.047,7.047,0,0,0,404.443,236.908Z" transform="translate(-377.468 -226.778)"/><g transform="translate(0.165)"><path class="a" d="M381.619,203.669c-7.8-1.279-14.977,3.163-16.549,9.747.025-.283.058-.567.1-.851,1.134-7.06,8.572-11.856,16.7-10.524a16.963,16.963,0,0,1,2.269.535,16.826,16.826,0,0,0-7.363-1.683,17.157,17.157,0,1,0,14.458,8.091A16.1,16.1,0,0,0,381.619,203.669Z" transform="translate(-359.741 -200.893)"/><path class="g" d="M397.955,206.645a16.911,16.911,0,0,0-2.269-.535c-8.125-1.333-15.563,3.464-16.7,10.524-.046.283-.079.567-.1.85,1.572-6.584,8.751-11.026,16.549-9.748a16.1,16.1,0,0,1,9.615,5.317A17.172,17.172,0,0,0,397.955,206.645Z" transform="translate(-373.557 -204.483)"/></g><g transform="translate(9.02 5.781)"><path class="h" d="M391.554,221.446" transform="translate(-391.554 -221.446)"/></g><path class="i" d="M377.01,215.337c.184-7.15,6.8-12.77,15.219-12.759a18.252,18.252,0,0,1,5.994,1.025l.16.029c-.1-.071-.2-.143-.308-.211a15.523,15.523,0,0,0-2.237-1.2,18.64,18.64,0,0,0-2.4-.872,14.55,14.55,0,0,0-2.553-.491,23.9,23.9,0,0,0-2.724-.141,13.624,13.624,0,0,0-3.9.721,9.2,9.2,0,0,0-.941.275c-2.706,1.19-4.959,3.572-6.366,7.446a13.222,13.222,0,0,0-.364,7.455,1.714,1.714,0,0,0,.506.514C377.061,216.542,377,215.557,377.01,215.337Z" transform="translate(-371.468 -200.763)"/><path class="j" d="M373.857,224.332c-3.791-.526-7.18-3.731-7.169-10.251a14.241,14.241,0,0,1,3.117-9,11.015,11.015,0,0,1,6.857-4.051,17.4,17.4,0,0,0-14.853,11.979c-.02.249-.032.5-.032.755,0,5.59,4.594,11.13,10.3,11.13a8.658,8.658,0,0,0,4.4-1.268A4.274,4.274,0,0,1,373.857,224.332Z" transform="translate(-361.046 -200.992)"/><g class="k" transform="translate(129.294 89.275)"><circle class="p" cx="36.5" cy="36.5" r="36.5"/><circle class="a" cx="36.5" cy="36.5" r="36"/></g></g></g><g transform="translate(0 36.418)"><g transform="translate(0.022)"><path class="l" d="M339.6,332.242h1.717V336.6h.043c.224-.366.464-.7.689-1.029l2.489-3.333h2.124l-3.262,4.038,3.474,5.443h-2.024l-2.674-4.345-.858,1.012v3.333H339.6Z" transform="translate(-339.595 -332.073)"/><path class="l" d="M377.2,336.452c0,3.179-1.927,4.994-4.529,4.994-2.687,0-4.375-2.053-4.375-4.823,0-2.925,1.843-4.981,4.514-4.981C375.566,331.641,377.2,333.738,377.2,336.452Zm-7.076.128c0,1.941.971,3.473,2.63,3.473,1.675,0,2.617-1.562,2.617-3.544,0-1.786-.887-3.475-2.617-3.475S370.123,334.625,370.123,336.579Z" transform="translate(-360.302 -331.641)"/><path class="l" d="M408.7,332.2a15.005,15.005,0,0,1,2.618-.211,4.417,4.417,0,0,1,2.926.761,2.408,2.408,0,0,1,.813,1.913,2.488,2.488,0,0,1-1.728,2.363v.042a2.347,2.347,0,0,1,1.322,1.83,24.439,24.439,0,0,0,.745,2.643h-1.771a11.871,11.871,0,0,1-.634-2.238c-.281-1.238-.716-1.631-1.7-1.657h-.872v3.895H408.7Zm1.716,4.178h1.027c1.168,0,1.884-.62,1.884-1.56,0-1.027-.717-1.52-1.842-1.52a5.055,5.055,0,0,0-1.069.083Z" transform="translate(-389.441 -331.892)"/><path class="l" d="M448.126,337.517h-3.572V340.3h3.994v1.42h-5.725v-9.48h5.514v1.422h-3.783v2.446h3.572Z" transform="translate(-414.052 -332.073)"/><path class="l" d="M473.672,338.178l-1.076,3.544h-1.786l3.038-9.48h2.209l3.081,9.48h-1.871l-.977-3.544Zm2.2-1.324-.588-1.84c-.144-.454-.265-.962-.376-1.395h-.022c-.11.433-.234.953-.355,1.395l-.576,1.84Z" transform="translate(-434.262 -332.073)"/></g><path class="l" d="M339.516,371.367a3.72,3.72,0,0,1,.68-.052.976.976,0,0,1,.682.2.764.764,0,0,1,.234.579.851.851,0,0,1-.2.6.979.979,0,0,1-.726.265.671.671,0,0,1-.17-.016v.9h-.5Zm.5,1.14a.721.721,0,0,0,.168.015.388.388,0,0,0,.433-.406.348.348,0,0,0-.394-.37.719.719,0,0,0-.207.021Z" transform="translate(-339.516 -360.156)"/><path class="l" d="M347.519,373.242l-.154.644h-.52l.678-2.511h.656l.692,2.511h-.54l-.171-.644Zm.564-.424-.138-.534c-.036-.148-.076-.338-.109-.483h-.009c-.031.149-.066.339-.1.483l-.135.534Z" transform="translate(-344.783 -360.199)"/><path class="l" d="M356.482,371.371a3.356,3.356,0,0,1,.669-.056,1.029,1.029,0,0,1,.718.2.671.671,0,0,1,.208.527.661.661,0,0,1-.391.615v.012a.617.617,0,0,1,.3.464c.07.286.136.614.178.711h-.514a3.526,3.526,0,0,1-.152-.584c-.062-.318-.158-.4-.365-.4h-.148v.987h-.5Zm.5,1.075h.2a.353.353,0,0,0,.4-.362.325.325,0,0,0-.37-.345.824.824,0,0,0-.227.019Z" transform="translate(-351.71 -360.156)"/><path class="l" d="M365.55,373.242l-.154.644h-.521l.679-2.511h.656l.693,2.511h-.54l-.17-.644Zm.563-.424-.137-.534c-.036-.148-.076-.338-.109-.485h-.01c-.03.151-.067.341-.1.485l-.135.534Z" transform="translate(-357.802 -360.199)"/><path class="l" d="M375.033,371.375h.5v2.034h.883v.477h-1.385Z" transform="translate(-365.125 -360.199)"/><path class="l" d="M381.374,373.886v-1.029l-.7-1.482h.577l.224.6c.071.182.119.318.171.481h.008c.049-.156.1-.3.167-.481l.225-.6h.564l-.732,1.465v1.046Z" transform="translate(-369.191 -360.199)"/><path class="l" d="M391.617,372.924c-.01-.3-.019-.663-.019-1.03h-.007c-.075.32-.166.677-.25.972l-.271.981h-.392l-.237-.971c-.072-.3-.144-.652-.2-.982h-.006c-.011.338-.023.727-.037,1.038l-.042.954h-.465l.141-2.511h.67l.217.842c.073.287.14.6.188.893h.013c.06-.291.136-.616.212-.9l.235-.834h.66l.119,2.511h-.489Z" transform="translate(-375.694 -360.199)"/><path class="l" d="M401.706,371.361a3.694,3.694,0,0,1,.679-.052.979.979,0,0,1,.683.2.76.76,0,0,1,.233.577.841.841,0,0,1-.2.6.976.976,0,0,1-.725.265.81.81,0,0,1-.171-.015v.9h-.5Zm.5,1.14a.629.629,0,0,0,.168.014.387.387,0,0,0,.432-.405.346.346,0,0,0-.392-.368.753.753,0,0,0-.208.019Z" transform="translate(-384.358 -360.152)"/><path class="l" d="M410.029,371.375v2.511h-.5v-2.511Z" transform="translate(-389.993 -360.199)"/><path class="l" d="M415.825,373.713a1.35,1.35,0,0,1-.567.107,1.132,1.132,0,0,1-1.164-1.263,1.2,1.2,0,0,1,1.212-1.33,1.165,1.165,0,0,1,.547.113l-.105.445a.989.989,0,0,0-.421-.092c-.4,0-.706.272-.706.834,0,.5.265.822.709.822a1.06,1.06,0,0,0,.421-.084Z" transform="translate(-393.291 -360.093)"/><path class="l" d="M427.147,373.711a1.306,1.306,0,0,1-.566.109,1.132,1.132,0,0,1-1.165-1.263,1.2,1.2,0,0,1,1.214-1.33,1.177,1.177,0,0,1,.549.113l-.107.445a.992.992,0,0,0-.421-.092c-.4,0-.706.272-.706.834,0,.5.263.82.709.82a1.108,1.108,0,0,0,.422-.082Z" transform="translate(-401.454 -360.093)"/><path class="l" d="M434.671,373.819c-.655,0-1.044-.562-1.044-1.277,0-.753.428-1.315,1.082-1.315.683,0,1.054.579,1.054,1.27,0,.827-.439,1.322-1.086,1.322Zm.024-.45c.339,0,.534-.362.534-.853,0-.452-.188-.838-.534-.838s-.54.379-.54.849.2.842.537.842Z" transform="translate(-407.377 -360.093)"/><path class="l" d="M445.485,372.924c-.011-.3-.02-.663-.02-1.032h-.008c-.072.322-.164.679-.251.973l-.27.98h-.392l-.237-.968c-.072-.3-.146-.654-.2-.984H444.1c-.01.341-.023.727-.036,1.041l-.042.954h-.464l.141-2.511h.669l.219.84c.073.287.138.6.188.895h.014c.058-.291.133-.616.21-.9l.235-.834h.659l.119,2.511h-.487Z" transform="translate(-414.539 -360.199)"/><path class="l" d="M456.622,372.924c-.009-.3-.02-.663-.02-1.032H456.6c-.073.322-.165.679-.251.973l-.27.98h-.393l-.237-.97c-.073-.3-.145-.652-.2-.983h-.007c-.01.339-.023.727-.036,1.039l-.043.956h-.465l.142-2.511h.669l.218.84c.073.287.14.6.189.895h.013c.058-.291.136-.619.21-.9l.235-.834h.659l.118,2.511h-.488Z" transform="translate(-422.569 -360.199)"/><path class="l" d="M467.264,371.375v2.511h-.5v-2.511Z" transform="translate(-431.259 -360.199)"/><path class="l" d="M471.837,371.852h-.6v-.477h1.708v.477h-.607v2.034h-.5Z" transform="translate(-434.548 -360.199)"/><path class="l" d="M479.887,371.852h-.6v-.477h1.707v.477h-.6v2.032h-.5Z" transform="translate(-440.331 -360.199)"/><path class="l" d="M489.033,372.822h-.817v.6h.913v.466h-1.414v-2.509h1.368v.464h-.867v.523h.817Z" transform="translate(-446.39 -360.199)"/><path class="l" d="M496.944,372.822h-.817v.6h.913v.466h-1.412v-2.509h1.365v.464h-.866v.523h.817Z" transform="translate(-452.078 -360.199)"/></g><path class="m" d="M375.8,404.43c-.435.194-7.311.681-6.6-5.179s11.165-9.972,13.109-9.252c-2.6,1.331-8,2.392-10.018,8.356-2,5.881,3.461,6,3.507,6.076" transform="translate(-360.906 -337.337)"/><path class="n" d="M404.937,416.068c-.129.46-4.173,6.045-8.2,1.73s-.467-14.96,1.342-15.988c-.661,2.848-3.311,7.658-.043,13.041,3.221,5.316,6.816,1.206,6.905,1.217" transform="translate(-379.471 -345.885)"/><path class="o" d="M422.019,420.932c.41.249,4.752,5.595-.455,8.375s-14.576-3.42-15.1-5.432c2.581,1.371,6.538,5.179,12.589,3.416,5.961-1.737,2.93-6.271,2.963-6.359" transform="translate(-387.88 -359.629)"/><path class="o" d="M418.429,430a12.774,12.774,0,0,1-3.991-.726,21.229,21.229,0,0,1-3.782-1.723c-2.229-1.288-4.006-2.841-4.229-3.7l-.008-.018.02.01c.475.252,1.006.592,1.567.951,1.922,1.233,4.553,2.921,7.92,2.921a11.15,11.15,0,0,0,3.1-.458c1.8-.524,2.954-1.355,3.44-2.472a4.326,4.326,0,0,0-.415-3.726c-.06-.118-.071-.14-.067-.152l0-.01H422a7.425,7.425,0,0,1,2.085,4.769,4.178,4.178,0,0,1-2.549,3.623,6.533,6.533,0,0,1-3.1.706m-11.981-6.128c.243.855,2.009,2.387,4.217,3.66a16.531,16.531,0,0,0,7.764,2.452,6.508,6.508,0,0,0,3.1-.706,4.165,4.165,0,0,0,2.537-3.606,7.46,7.46,0,0,0-2.059-4.74,1.028,1.028,0,0,0,.058.125,6.229,6.229,0,0,1,.557,1.465,3.569,3.569,0,0,1-.142,2.276c-.489,1.121-1.649,1.954-3.449,2.48a10.707,10.707,0,0,1-7.6-.529A24.4,24.4,0,0,1,408,424.81c-.556-.357-1.076-.691-1.547-.942" transform="translate(-387.845 -359.604)"/></g></svg>