<svg xmlns="http://www.w3.org/2000/svg" width="17" height="17.001" viewBox="0 0 17 17.001"><defs><style>.a{fill:#136da8;}</style></defs><g transform="translate(-1694 -12)"><path class="a" d="M8.5,15.462A8.342,8.342,0,0,1,0,7.309,7.874,7.874,0,0,1,1.317,2.954,8.434,8.434,0,0,1,4.738,0V1.847A6.475,6.475,0,0,0,1.672,7.309,6.7,6.7,0,0,0,8.5,13.858a6.7,6.7,0,0,0,6.827-6.549,6.475,6.475,0,0,0-3.065-5.462V0a8.433,8.433,0,0,1,3.42,2.954A7.874,7.874,0,0,1,17,7.309,8.341,8.341,0,0,1,8.5,15.462Z" transform="translate(1694 13.539)"/><rect class="a" width="2" height="11" rx="1" transform="translate(1701.5 12)"/></g></svg>