<svg xmlns="http://www.w3.org/2000/svg" width="20" height="18" viewBox="0 0 20 18"><defs><style>.a{fill:#1984cb;}</style></defs><path class="a" d="M18.463,6.866,10,2.1,1.536,6.866A1.037,1.037,0,0,1,.137,6.5.988.988,0,0,1,.512,5.133l8.87-5A1.039,1.039,0,0,1,10,.005a1.039,1.039,0,0,1,.617.129l8.87,5A.988.988,0,0,1,19.863,6.5a1.039,1.039,0,0,1-1.4.366Z" transform="translate(0 0)"/><path class="a" d="M13.406,10H1A1,1,0,0,1,0,9V1A1,1,0,0,1,1,0h.067a1,1,0,0,1,1,1V8H12.406V1a1,1,0,0,1,1-1h.068a1,1,0,0,1,1,1V9a1,1,0,0,1-1,1Z" transform="translate(2.634 8)"/></svg>