<svg xmlns="http://www.w3.org/2000/svg" xmlns:xlink="http://www.w3.org/1999/xlink" width="243" height="119.254" viewBox="0 0 243 119.254"><defs><style>.a,.e,.j{fill:none;}.b{font-size:28px;font-family:NanumSquareB, NanumSquare;letter-spacing:0.1em;}.c,.m{fill:#414042;}.c{opacity:0.5;}.d{clip-path:url(#a);}.e,.j{stroke:#fff;stroke-miterlimit:10;}.e{stroke-width:0.756px;}.f{mix-blend-mode:multiply;isolation:isolate;fill:url(#b);}.g{fill:url(#c);}.h{fill:url(#d);}.i{fill:url(#e);}.k{fill:url(#f);}.l{fill:url(#g);}.n{fill:#404040;}.o{fill:#af0d27;}.p{fill:#00529c;}.q{fill:#217f44;}</style><clipPath id="a"><path class="a" d="M415.311,228.264a27.534,27.534,0,0,1-28.084,27.391c-15.595-.189-27.645-11.954-28.067-27.391-.418-15.267,12.543-27.37,28.048-27.37S415.311,212.991,415.311,228.264Z" transform="translate(-359.15 -200.893)"/></clipPath><linearGradient id="b" x1="0.503" y1="0.739" x2="0.506" y2="1.06" gradientUnits="objectBoundingBox"><stop offset="0" stop-color="#fff"/><stop offset="1" stop-color="#930a17"/></linearGradient><linearGradient id="c" y1="0.5" x2="1" y2="0.5" gradientUnits="objectBoundingBox"><stop offset="0" stop-color="#ef5713"/><stop offset="0.399" stop-color="#e71618"/><stop offset="1" stop-color="#8f0026"/></linearGradient><radialGradient id="d" cx="-27.392" cy="-20.261" r="0.644" gradientTransform="matrix(0.891, 0, 0, 0.995, -2.963, -0.101)" gradientUnits="objectBoundingBox"><stop offset="0" stop-color="#419fdb"/><stop offset="0.045" stop-color="#3b95d3"/><stop offset="0.24" stop-color="#2670b7"/><stop offset="0.434" stop-color="#1553a1"/><stop offset="0.627" stop-color="#093e91"/><stop offset="0.817" stop-color="#023288"/><stop offset="1" stop-color="#002e85"/></radialGradient><linearGradient id="e" x1="0.4" y1="1.054" x2="0.787" y2="0.834" gradientUnits="objectBoundingBox"><stop offset="0" stop-color="#c7c9cb"/><stop offset="1" stop-color="#fff"/></linearGradient><linearGradient id="f" x1="0.061" y1="0.616" x2="0.972" y2="-0.045" gradientUnits="objectBoundingBox"><stop offset="0" stop-color="#434243"/><stop offset="0.656" stop-color="#c7c9cb"/><stop offset="1" stop-color="#e1e1e1"/></linearGradient><linearGradient id="g" x1="0.658" y1="0.57" x2="0.548" y2="0.388" gradientUnits="objectBoundingBox"><stop offset="0" stop-color="#ffa300"/><stop offset="1" stop-color="#ffcb00"/></linearGradient></defs><g transform="translate(-41 20)"><g transform="translate(134 29)"><text class="b" transform="translate(80 28)"><tspan x="-69.3" y="0">이천훈련원</tspan></text><rect class="c" width="1" height="39.985"/></g><g transform="translate(41 -20)"><g transform="translate(0 0)"><g transform="translate(8.781)"><g class="d"><g transform="translate(25.174 24.839)"><path class="e" d="M414.588,256.428" transform="translate(-414.588 -256.428)"/></g><path class="f" d="M392.234,256.449a11.877,11.877,0,0,1-.8-4.137c0-.162.029-1.739.036-1.9a16.024,16.024,0,0,1-6.727,9.843,14.555,14.555,0,0,1-7.591,2.265c-9.3,0-16.8-8.811-16.8-17.7,0-.41.022-.816.054-1.218a26.98,26.98,0,0,0-.8,3.223,27.291,27.291,0,0,0,10.917,26.984l.025.015c-.026-.02-.053-.04-.08-.059.04.029.083.058.127.087.09.061.185.117.278.174a13.851,13.851,0,0,0,3.5,1.108,18.068,18.068,0,0,0,14.317-2.829C393.542,268.8,394.208,261.654,392.234,256.449Z" transform="translate(-359.161 -224.498)"/><path class="g" d="M392.234,256.449a11.877,11.877,0,0,1-.8-4.137c0-.162.029-1.739.036-1.9a16.024,16.024,0,0,1-6.727,9.843,14.555,14.555,0,0,1-7.591,2.265c-9.3,0-16.8-8.811-16.8-17.7,0-.41.022-.816.054-1.218a26.98,26.98,0,0,0-.8,3.223,27.291,27.291,0,0,0,10.917,26.984c.008.005.027.014.071.042.09.061.185.117.278.174a13.851,13.851,0,0,0,3.5,1.108,18.068,18.068,0,0,0,14.317-2.829C393.542,268.8,394.208,261.654,392.234,256.449Z" transform="translate(-359.161 -224.498)"/><path class="h" d="M417.011,236.908a11.9,11.9,0,0,0-9.815,5.108,12.153,12.153,0,0,0-2.042,6.578,13.089,13.089,0,0,0,.746,4.078c1.916,5.806,1.5,12.41-3.353,15.914a18.065,18.065,0,0,1-14.316,2.829,16.727,16.727,0,0,1-3.7-1.208c7.566,5.722,19.913,8.037,31.642.877a24.976,24.976,0,0,0,4.276-3.3,30.667,30.667,0,0,0,3.553-4.11,27.04,27.04,0,0,0,2.7-4.688,27.792,27.792,0,0,0,1.74-4.747,16.7,16.7,0,0,0-.332-9.98,11.129,11.129,0,0,0-1.292-2.383,12.75,12.75,0,0,0-2.537-2.553,10.924,10.924,0,0,0-3.17-1.693,15,15,0,0,0-1.89-.492A11.789,11.789,0,0,0,417.011,236.908Z" transform="translate(-373.007 -220.8)"/><g transform="translate(0.269)"><path class="a" d="M395.43,205.307c-12.72-2.034-24.431,5.03-27,15.5.04-.45.094-.9.168-1.353,1.85-11.227,13.984-18.853,27.237-16.735a28.26,28.26,0,0,1,3.7.85,28.036,28.036,0,0,0-12.011-2.676,27.384,27.384,0,1,0,27.81,27.371,26.955,26.955,0,0,0-4.225-14.5A26.45,26.45,0,0,0,395.43,205.307Z" transform="translate(-359.741 -200.893)"/><path class="i" d="M409.993,207.092a28.185,28.185,0,0,0-3.7-.851c-13.254-2.119-25.388,5.508-27.237,16.736-.075.451-.129.9-.169,1.352,2.564-10.471,14.275-17.534,27-15.5a26.449,26.449,0,0,1,15.685,8.455A27.775,27.775,0,0,0,409.993,207.092Z" transform="translate(-370.192 -203.654)"/></g><g transform="translate(14.715 9.193)"><path class="j" d="M391.554,221.446" transform="translate(-391.554 -221.446)"/></g><path class="k" d="M377.509,223.969c.3-11.37,11.1-20.307,24.827-20.289a30.468,30.468,0,0,1,9.778,1.631c.087.015.172.029.26.046-.168-.112-.333-.227-.5-.335a25.54,25.54,0,0,0-3.65-1.916,30.936,30.936,0,0,0-3.921-1.387,24.287,24.287,0,0,0-4.164-.781,40,40,0,0,0-4.443-.225,22.739,22.739,0,0,0-6.361,1.147,15.3,15.3,0,0,0-1.535.437c-4.415,1.893-8.089,5.68-10.385,11.841A20.52,20.52,0,0,0,376.819,226a2.758,2.758,0,0,0,.826.817C377.591,225.885,377.5,224.319,377.509,223.969Z" transform="translate(-368.468 -200.793)"/><path class="l" d="M381.483,238.086c-6.184-.836-11.712-5.933-11.694-16.3a22.294,22.294,0,0,1,5.086-14.312,18.069,18.069,0,0,1,11.186-6.443,28.235,28.235,0,0,0-24.229,19.05c-.032.4-.053.795-.053,1.2,0,8.889,7.495,17.7,16.8,17.7a14.4,14.4,0,0,0,7.172-2.017A7.108,7.108,0,0,1,381.483,238.086Z" transform="translate(-360.584 -200.969)"/></g></g><g transform="translate(0 59.32)"><g transform="translate(0.035)"><path class="m" d="M339.595,332.242h2.73v6.936h.068c.356-.582.738-1.121,1.1-1.635l3.958-5.3h3.377l-5.188,6.421,5.524,8.655h-3.219l-4.252-6.91-1.364,1.61v5.3h-2.73Z" transform="translate(-339.595 -331.973)"/><path class="m" d="M382.454,339.291c0,5.056-3.064,7.941-7.2,7.941-4.273,0-6.958-3.265-6.958-7.67,0-4.652,2.931-7.92,7.179-7.92C379.858,331.641,382.454,334.976,382.454,339.291Zm-11.252.2c0,3.086,1.545,5.523,4.182,5.523,2.663,0,4.161-2.484,4.161-5.636,0-2.84-1.41-5.526-4.161-5.526C372.655,333.855,371.2,336.386,371.2,339.494Z" transform="translate(-355.271 -331.641)"/><path class="m" d="M408.7,332.325a23.863,23.863,0,0,1,4.163-.335c2.167,0,3.622.359,4.653,1.21a3.83,3.83,0,0,1,1.293,3.042A3.956,3.956,0,0,1,416.055,340v.067a3.732,3.732,0,0,1,2.1,2.909,38.859,38.859,0,0,0,1.184,4.2h-2.816a18.865,18.865,0,0,1-1.008-3.559c-.447-1.968-1.138-2.593-2.705-2.635h-1.387v6.194H408.7Zm2.729,6.644h1.633c1.857,0,3-.985,3-2.48,0-1.633-1.14-2.417-2.93-2.417a8.039,8.039,0,0,0-1.7.132Z" transform="translate(-377.363 -331.834)"/><path class="m" d="M451.256,340.631h-5.68v4.429h6.351v2.258h-9.1V332.242h8.768V334.5h-6.015v3.89h5.68Z" transform="translate(-396.032 -331.973)"/><path class="m" d="M475.362,341.682l-1.712,5.636h-2.841l4.831-15.076h3.513l4.9,15.076h-2.975l-1.554-5.636Zm3.491-2.1-.934-2.926c-.229-.721-.421-1.53-.6-2.218h-.034c-.175.688-.372,1.516-.565,2.218l-.916,2.926Z" transform="translate(-411.277 -331.973)"/></g><path class="n" d="M339.516,371.4a5.909,5.909,0,0,1,1.082-.083,1.553,1.553,0,0,1,1.084.323,1.215,1.215,0,0,1,.373.921,1.354,1.354,0,0,1-.319.948,1.556,1.556,0,0,1-1.155.421,1.067,1.067,0,0,1-.271-.025v1.433h-.793Zm.794,1.812a1.145,1.145,0,0,0,.267.023.618.618,0,0,0,.688-.645.553.553,0,0,0-.627-.589,1.136,1.136,0,0,0-.329.034Z" transform="translate(-339.516 -353.57)"/><path class="n" d="M347.917,374.344l-.246,1.025h-.827l1.078-3.993h1.043l1.1,3.993h-.859l-.272-1.025Zm.9-.674-.22-.849c-.058-.236-.121-.538-.173-.768h-.014c-.049.237-.106.538-.158.768l-.215.849Z" transform="translate(-343.567 -353.603)"/><path class="n" d="M356.482,371.4a5.338,5.338,0,0,1,1.063-.089,1.635,1.635,0,0,1,1.142.316,1.067,1.067,0,0,1,.331.837,1.051,1.051,0,0,1-.623.978v.02a.98.98,0,0,1,.471.738c.111.455.216.977.282,1.131h-.817a5.6,5.6,0,0,1-.243-.928c-.1-.505-.25-.635-.58-.641h-.236l0,1.569h-.793Zm.791,1.71h.314a.561.561,0,0,0,.635-.575.516.516,0,0,0-.588-.548,1.309,1.309,0,0,0-.361.03Z" transform="translate(-348.894 -353.57)"/><path class="n" d="M365.949,374.344l-.245,1.025h-.828l1.079-3.993H367l1.1,3.993h-.859l-.27-1.025Zm.9-.674-.218-.849c-.058-.236-.12-.538-.173-.771h-.015c-.047.24-.107.542-.158.771l-.214.849Z" transform="translate(-353.394 -353.603)"/><path class="n" d="M375.033,371.375h.8v3.235h1.4l0,.759h-2.2Z" transform="translate(-358.955 -353.603)"/><path class="n" d="M381.788,375.368v-1.636l-1.117-2.358h.917l.356.96c.113.289.189.505.272.764h.013c.078-.249.161-.478.265-.764l.358-.96h.9l-1.164,2.33,0,1.663Z" transform="translate(-362.039 -353.603)"/><path class="n" d="M392.755,373.838c-.017-.478-.031-1.054-.031-1.638h-.011c-.119.508-.264,1.076-.4,1.545l-.431,1.56h-.624l-.377-1.544c-.114-.473-.229-1.037-.321-1.561h-.009c-.017.538-.037,1.157-.058,1.651l-.067,1.517h-.74l.225-3.993h1.065l.345,1.34c.116.456.222.955.3,1.42h.02c.1-.462.217-.98.337-1.433l.373-1.326H393.4l.19,3.993h-.777Z" transform="translate(-366.97 -353.603)"/><path class="n" d="M401.706,371.391a5.88,5.88,0,0,1,1.08-.082,1.557,1.557,0,0,1,1.086.326,1.208,1.208,0,0,1,.371.917,1.338,1.338,0,0,1-.32.948,1.552,1.552,0,0,1-1.154.422,1.286,1.286,0,0,1-.272-.023v1.433h-.792Zm.792,1.813a1,1,0,0,0,.267.022.615.615,0,0,0,.688-.644.55.55,0,0,0-.623-.586,1.2,1.2,0,0,0-.331.03Z" transform="translate(-373.553 -353.567)"/><path class="n" d="M410.325,371.375v3.993h-.8v-3.993Z" transform="translate(-377.843 -353.603)"/><path class="n" d="M416.846,375.18a2.146,2.146,0,0,1-.9.17,1.8,1.8,0,0,1-1.85-2.008,1.913,1.913,0,0,1,1.928-2.114,1.851,1.851,0,0,1,.87.179l-.167.708a1.574,1.574,0,0,0-.67-.147c-.629,0-1.122.433-1.122,1.327,0,.8.421,1.307,1.127,1.307a1.685,1.685,0,0,0,.669-.134Z" transform="translate(-380.332 -353.521)"/><path class="n" d="M428.169,375.177a2.079,2.079,0,0,1-.9.173,1.8,1.8,0,0,1-1.852-2.008,1.914,1.914,0,0,1,1.93-2.114,1.871,1.871,0,0,1,.873.179l-.17.708a1.578,1.578,0,0,0-.67-.147c-.631,0-1.123.433-1.123,1.327,0,.8.419,1.3,1.128,1.3a1.764,1.764,0,0,0,.671-.13Z" transform="translate(-386.528 -353.521)"/><path class="n" d="M435.288,375.35c-1.041,0-1.661-.894-1.661-2.031,0-1.2.681-2.091,1.72-2.091,1.086,0,1.677.92,1.677,2.02,0,1.315-.7,2.1-1.728,2.1Zm.038-.715c.539,0,.849-.575.849-1.356,0-.719-.3-1.333-.849-1.333s-.86.6-.86,1.35.319,1.34.854,1.34Z" transform="translate(-391.017 -353.521)"/><path class="n" d="M446.624,373.838c-.017-.481-.032-1.054-.032-1.642h-.012c-.115.512-.26,1.08-.4,1.547l-.429,1.558h-.623l-.378-1.54c-.115-.475-.232-1.04-.321-1.565h-.011c-.015.542-.036,1.157-.058,1.655l-.067,1.517h-.739l.224-3.993h1.063l.348,1.336c.117.456.22.955.3,1.423h.022c.093-.462.212-.98.334-1.433l.374-1.326h1.047l.189,3.993h-.775Z" transform="translate(-396.447 -353.603)"/><path class="n" d="M457.76,373.838c-.015-.481-.032-1.054-.032-1.642h-.01c-.117.512-.262,1.08-.4,1.547l-.428,1.558h-.625l-.377-1.542c-.116-.472-.23-1.038-.32-1.563h-.011c-.016.538-.036,1.157-.057,1.652l-.068,1.52h-.739l.226-3.993h1.063l.346,1.336c.116.456.222.955.3,1.423h.02c.093-.462.216-.984.335-1.433l.373-1.326H458.4l.188,3.993h-.776Z" transform="translate(-402.541 -353.603)"/><path class="n" d="M467.559,371.375v3.993h-.8v-3.993Z" transform="translate(-409.176 -353.603)"/><path class="n" d="M472.191,372.134h-.953v-.759h2.716v.759h-.965v3.235h-.8Z" transform="translate(-411.479 -353.603)"/><path class="n" d="M480.242,372.134h-.957v-.759H482v.759h-.962v3.232h-.8Z" transform="translate(-415.927 -353.603)"/><path class="n" d="M489.811,373.676h-1.3v.948h1.452v.741h-2.249v-3.99h2.176v.738h-1.379v.831h1.3Z" transform="translate(-420.586 -353.603)"/><path class="n" d="M497.722,373.676h-1.3v.948h1.452v.741h-2.246v-3.99H497.8v.738h-1.378v.831h1.3Z" transform="translate(-424.961 -353.603)"/></g><path class="o" d="M379.723,413c-.692.308-11.626,1.083-10.493-8.236s17.755-15.858,20.846-14.713c-4.139,2.116-12.714,3.8-15.931,13.287-3.173,9.353,5.5,9.535,5.577,9.662" transform="translate(-355.676 -303.992)"/><path class="p" d="M410.869,424.483c-.205.732-6.636,9.612-13.046,2.752s-.743-23.79,2.134-25.424c-1.052,4.529-5.264,12.178-.069,20.738,5.122,8.453,10.839,1.918,10.981,1.935" transform="translate(-369.748 -310.566)"/><path class="q" d="M431.2,420.932c.652.4,7.557,8.9-.724,13.318s-23.179-5.438-24.007-8.639c4.1,2.181,10.4,8.236,20.019,5.433,9.48-2.762,4.659-9.973,4.712-10.112" transform="translate(-375.948 -321.135)"/><path class="q" d="M425.518,435.367a20.316,20.316,0,0,1-6.347-1.155,33.759,33.759,0,0,1-6.015-2.74c-3.545-2.049-6.371-4.518-6.725-5.877l-.013-.029.032.016c.756.4,1.6.942,2.492,1.512,3.057,1.961,7.24,4.645,12.594,4.645a17.727,17.727,0,0,0,4.928-.728c2.86-.834,4.7-2.155,5.47-3.931.717-1.655.5-3.648-.659-5.926-.1-.188-.113-.223-.107-.242l.007-.017.017,0a11.809,11.809,0,0,1,3.316,7.584c-.068,2.427-1.428,4.364-4.054,5.761a10.389,10.389,0,0,1-4.937,1.122m-19.052-9.744c.387,1.359,3.194,3.8,6.706,5.82,4.283,2.476,8.784,3.9,12.346,3.9a10.348,10.348,0,0,0,4.928-1.123c2.609-1.39,3.963-3.318,4.034-5.735.1-3.624-2.777-7.154-3.274-7.537a1.657,1.657,0,0,0,.092.2,9.9,9.9,0,0,1,.885,2.33,5.676,5.676,0,0,1-.226,3.62c-.777,1.782-2.622,3.108-5.484,3.944a17.029,17.029,0,0,1-12.079-.84,38.81,38.81,0,0,1-5.468-3.077c-.885-.567-1.712-1.1-2.46-1.5" transform="translate(-375.921 -321.116)"/></g></g></g></svg>